
<svg version="1.1"
	 xmlns="http://www.w3.org/2000/svg" xmlns:xlink="http://www.w3.org/1999/xlink" xmlns:a="http://ns.adobe.com/AdobeSVGViewerExtensions/3.0/" width="100%" height="100%" viewBox="0.016 0 534 462"
	 overflow="visible" enable-background="new 0.016 0 534 462" xml:space="preserve" id="dads-only-logo">
<defs>
</defs>
<path fill-rule="evenodd" clip-rule="evenodd" fill="#FFFFFF" d="M435.016,11c0,4.666,0,9.334,0,14c1.333,0.333,2.667,0.667,4,1
	c0.492,2.732,0.982,5.18,1,9c1.135,0.844,0.146-0.127,1,1c1,0,2,0,3,0c0,4,0,8,0,12c-3.809,1.422-10.65,1.048-16,1
	c-0.385-0.773-2-2-2-2c0-2.333,0-4.667,0-7c-1-0.333-2-0.667-3-1c-0.667-1.667-1.333-3.333-2-5c-2.667,0-5.333,0-8,0
	c0-0.333,0-0.667,0-1c-0.333,0-0.667,0-1,0c-0.979-1.327,0.437-3.188-1-4c-7.666,0-15.334,0-23,0c-1.139-6.15-0.134-10.343,0-17
	c6.277-2.325,17.965-1.052,26-1c1.139-1.139,0.003-0.398,2-1c1-3.333,2-6.667,3-10c3.333,0,6.667,0,10,0c0.333,1,0.667,2,1,3
	c0.333,0,0.667,0,1,0c-0.333,2-0.667,4-1,6c0.333,0,0.667,0,1,0C432.181,10.361,432.841,10.528,435.016,11z"/>
<path fill-rule="evenodd" clip-rule="evenodd" fill="#FFFFFF" d="M380.016,17c0.333,3,0.667,6,1,9c1,0,2,0,3,0c0,0.333,0,0.667,0,1
	c0.333,0,0.667,0,1,0c0,2,0,4,0,6c-1.135,0.844-0.146-0.127-1,1c-1,0-2,0-3,0c-0.333,1.667-0.667,3.333-1,5c-1,0-2,0-3,0
	c-1.382,2.612-1.769,1.693-2,6c2.078,1.094,1.771,1.611,5,2c0,1,0,2,0,3c0.333,0,0.667,0,1,0c0,0.333,0,0.667,0,1c1,0,2,0,3,0
	c0.333,1.667,0.667,3.333,1,5c12.999,0,26.001,0,39,0c0,0.333,0,0.667,0,1c1.333,0.333,2.667,0.667,4,1c0.333,1,0.667,2,1,3
	c5.065-0.093,11.458-0.334,15,1c0,1,0,2,0,3c2.667,0.333,5.333,0.667,8,1c1,1.667,2,3.333,3,5c0.667,0,1.333,0,2,0
	c0,0.333,0,0.667,0,1c1.479,1.38,1.302,0.512,2,3c1,0,2,0,3,0c0,0.333,0,0.667,0,1c1.361,1.166,1.528,1.825,2,4c1,0,2,0,3,0
	c0,0.333,0,0.667,0,1c1.987,2.167,1.101,10.054,1,14c1,0,2,0,3,0c0,0.333,0,0.667,0,1c1.139,1.139,0.398,0.003,1,2
	c2.751,2.997,0.202,14.942,0,19c-1.667,0.667-3.333,1.333-5,2c0,2.333,0,4.667,0,7c-0.333,0-0.667,0-1,0
	c-0.636,1.982-0.376,3.313-1,5c-1,0.333-2,0.667-3,1c-0.333,1.667-0.667,3.333-1,5c-1,0.333-2,0.667-3,1
	c-1.199,1.044-1.561,3.163-2,5c-1.333,0-2.667,0-4,0c0,1.333,0,2.667,0,4c-1.667,0.333-3.333,0.667-5,1c0,1,0,2,0,3
	c-0.333,0-0.667,0-1,0c-1.819,1.683-7.561,1.099-11,1c-0.702-1.412-1.439-1.227-2-2c0-0.667,0-1.333,0-2
	c-0.954-1.094-2.039-0.772-4-1c0-2.333,0-4.667,0-7c1.333-0.333,2.667-0.667,4-1c0.463-2.391,1.158-3.145,2-5c1,0,2,0,3,0
	c0.918-5.107,0.53-10.876,0-15c-2.762-0.723-2.237-0.279-3-3c-1.139-1.139-0.398-0.003-1-2c-14.364,0.015-30.506-0.222-42,0
	c-0.944-1.801-1.385-1.575-2-4c-5.666,0-11.334,0-17,0c-0.581-1.154-1.756-1.582-2-2c-0.881-1.511,0.43-3.17-1-4
	c-2.333,0-4.667,0-7,0c-2.702-1.457,0.649-4.182-6-5c0-1.333,0-2.667,0-4c-0.333,0-0.667,0-1,0c0,2,0,4,0,6c1,0,2,0,3,0
	c0,0.333,0,0.667,0,1c0.333,0,0.667,0,1,0c0,2.667,0,5.333,0,8c1.667,0.667,3.333,1.333,5,2c0,4,0,8,0,12
	c1.333,0.667,2.667,1.333,4,2c0,1.333,0,2.667,0,4c2.288,6.835,0.072,15.318,0,23c-1.333,0.333-2.667,0.667-4,1c0,4,0,8,0,12
	c-5.93,3.157-4.667,4.762-7,11c-1,0-2,0-3,0c0,1,0,2,0,3c-0.333,0-0.667,0-1,0c-1.166,1.361-1.825,1.528-4,2
	c-0.333,1.333-0.667,2.667-1,4c-1,0-2,0-3,0c0,0.333,0,0.667,0,1c-3.302,3.346,0.819,3.928-7,4c0,1,0,2,0,3c-1.667,0-3.333,0-5,0
	c-0.333-1-0.667-2-1-3c-1.667,0-3.333,0-5,0c-0.909-4.699-0.892-8.305,0-13c1,0,2,0,3,0c0-0.333,0-0.667,0-1
	c1.987-2.167,1.101-10.054,1-14c-1.135-0.844-0.146,0.127-1-1c-1,0-2,0-3,0c-0.465-2.589-0.959-4.423-1-8
	c-1.135-0.844-0.146,0.127-1-1c-1,0-2,0-3,0c0.068-5.12-0.289-10.231-1-14c-1,0-2,0-3,0c0-0.333,0-0.667,0-1c-0.333,0-0.667,0-1,0
	c0-2.667,0-5.333,0-8c-1.333-0.333-2.667-0.667-4-1c-0.667-3.333-1.333-6.667-2-10c-1,0-2,0-3,0c0-0.333,0-0.667,0-1
	c-1.885-2.05-1.1-9.224-1-13c-1,0-2,0-3,0c0-0.333,0-0.667,0-1c-1.485-1.593-1.092-5.892-1-9c-1.333,0-2.667,0-4,0
	c-0.844-1.135,0.127-0.146-1-1c0-2.667,0-5.333,0-8c-0.333,0-0.667,0-1,0c-1.961-2.17-1.752-0.101-3-1c-0.667-1.667-1.333-3.333-2-5
	c-4.333,0-8.667,0-13,0c-1.045-5.458-1.028-11.545,0-17c2.651-0.997,6.944-1.041,11-1c1.139-1.139,0.003-0.398,2-1c0-1,0-2,0-3
	c3.538-0.636,8.151-1.008,13-1c0.667,1.667,1.333,3.333,2,5c5.666,0,11.334,0,17,0c1,1.667,2,3.333,3,5c1,0.333,2,0.667,3,1
	c0.333,1,0.667,2,1,3c2,0,4,0,6,0c0,0.333,0,0.667,0,1c1,0.333,2,0.667,3,1c0,1,0,2,0,3c2.391,0.463,3.145,1.158,5,2c0,1,0,2,0,3
	c0.667,0,1.333,0,2,0c-2.365-6.267-1.008-17.969-1-26c0-3,0-6,0-9c0.333,0,0.667,0,1,0c0-1,0-2,0-3c1-0.333,2-0.667,3-1
	c1.2-1.045,1.559-3.162,2-5c4.734-0.924,4.44-2.1,6-6c1,0,2,0,3,0c0-1,0-2,0-3c3.635-1.77,6.025-2.333,7-7c1.333,0,2.667,0,4,0
	c0-1,0-2,0-3c0.333,0,0.667,0,1,0c0-0.333,0-0.667,0-1C376.016,17,378.016,17,380.016,17z"/>
<path fill-rule="evenodd" clip-rule="evenodd" fill="#FFFFFF" d="M272.016,67c0.36,2.145,0.982,1.943,1,2c0,2,0,4,0,6
	c1.667,1,3.333,2,5,3c0,2,0,4,0,6c1.667,1,3.333,2,5,3c0.406,0.737,0.488,7.633,1,9c1,0.333,2,0.667,3,1
	c0.333,4.333,0.667,8.667,1,13c4.397,1.867,5.209,3.41,5,10c2.391,0.463,3.145,1.158,5,2c0,2.333,0,4.667,0,7
	c1.333,0.667,2.667,1.333,4,2c0,4.333,0,8.667,0,13c1.667,0.667,3.333,1.333,5,2c0,2.333,0,4.667,0,7l1,1c1,0,2,0,3,0
	c0.679,3.778,1.009,8.878,1,14c1,0,2,0,3,0c0,0.333,0,0.667,0,1c1.133,1.236,1.833,6.814,2,9c1,0,2,0,3,0c0,0.333,0,0.667,0,1
	c0.333,0,0.667,0,1,0c0,2.333,0,4.667,0,7c0.333,0,0.667,0,1,0c1.166,1.361,1.825,1.528,4,2c0,4,0,8,0,12c-3,0-6,0-9,0
	c-1.284,6.839-6.261,5.347-14,5c-0.95,5.292-3.625,5.299-10,5c0,1.333,0,2.667,0,4l-9,1c-0.667,1.333-1.333,2.667-2,4
	c-2.954,1.564-6.02-1.461-8-1c0,0.333,0,0.667,0,1c-1.333,0.333-2.667,0.667-4,1c-0.333,1.333-0.667,2.667-1,4c-2.667,0-5.333,0-8,0
	c-2,4.69-4.002,5.248-11,5c0,1,0,2,0,3c-0.333,0-0.667,0-1,0c-1.021,0.917-10.083,1.853-12,2c-0.333,1.333-0.667,2.667-1,4
	c-2.667,0-5.333,0-8,0c-0.844,1.135,0.127,0.146-1,1c0,1,0,2,0,3c-2.333,0.333-4.667,0.667-7,1c0-0.333,0-0.667,0-1
	c-1.667,0-3.333,0-5,0c-1.067-5.953-1.012-14.548-1-22c-1.667-0.667-3.333-1.333-5-2c0-1,0-2,0-3c-3.333,0-6.667,0-10,0
	c-0.333,1.333-0.667,2.667-1,4c-5.333,0-10.667,0-16,0c-0.997-2.651-1.041-6.944-1-11c1.801-0.944,1.575-1.385,4-2
	c0.333-1.333,0.667-2.667,1-4c2.667,0,5.333,0,8,0c0.605-1.604,0.881-2.375,1-5c-1.667-1-3.333-2-5-3c0-2.333,0-4.667,0-7
	c-6.019-1.33-3.951-4.562-10-6c0-2.667,0-5.333,0-8c-1.135-0.844-0.146,0.127-1-1c-1,0-2,0-3,0c-0.333-1.333-0.667-2.667-1-4
	c-1,0-2,0-3,0c0-0.333,0-0.667,0-1c-2.748-2.81-0.314-4.316-6-5c-0.333-2.667-0.667-5.333-1-8c-1.333-0.333-2.667-0.667-4-1
	c-0.333-1.333-0.667-2.667-1-4c-1,0-2,0-3,0c-0.667-3.333-1.333-6.667-2-10c-1,0-2,0-3,0c0-0.333,0-0.667,0-1c-0.333,0-0.667,0-1,0
	c0-1.333,0-2.667,0-4c-0.333,0-0.667,0-1,0c0-0.667,0-1.333,0-2c-1.333-1-2.667-2-4-3c0-2.667,0-5.333,0-8c3-0.333,6-0.667,9-1
	c0-1,0-2,0-3c0.333,0,0.667,0,1,0c0-0.333,0-0.667,0-1c2.667,0,5.333,0,8,0c0-1.333,0-2.667,0-4c3.333-0.333,6.667-0.667,10-1
	c0-1.333,0-2.667,0-4c2.874-1.079,7.69-1.044,12-1c0,0.333,0,0.667,0,1c1.667,0,3.333,0,5,0c0.667,3,1.333,6,2,9
	c5.995,0.713,2.804,2.536,6,5c1,0.333,2,0.667,3,1c0.333,1,0.667,2,1,3c0.667,0,1.333,0,2,0c0,0.333,0,0.667,0,1
	c0.667,0.333,1.333,0.667,2,1c0,2.667,0,5.333,0,8c1.333,0.333,2.667,0.667,4,1c0,1,0,2,0,3c0.333,0,0.667,0,1,0
	c3.2,3.113,4.669-0.125,5,7c1.139,1.139,0.398,0.003,1,2c0.667,0,1.333,0,2,0c0.667,2,1.333,4,2,6c1,0,2,0,3,0
	c0.463,2.391,1.158,3.145,2,5c1,0,2,0,3,0c0.492,2.732,0.982,5.18,1,9c1.135,0.844,0.146-0.127,1,1c1,0,2,0,3,0
	c0.333,1.333,0.667,2.667,1,4c1,0,2,0,3,0c1.094,2.078,1.611,1.771,2,5c1,0,2,0,3,0c0,0.333,0,0.667,0,1
	c3.125,2.956,0.177,4.757,2,8c1,0.333,2,0.667,3,1c0.333,1,0.667,2,1,3c1.001,1.179,3.188,1.603,5,2c0.652,4.565,0.891,2.475,3,5
	c0.333,0,0.667,0,1,0c0.333,2.667,0.667,5.333,1,8c4,0,8,0,12,0c2.371-4.312,3.022-3.743,3-11c-1-0.333-2-0.667-3-1
	c-0.753-4.133-1.909-6.704-2-12c-1.333-0.333-2.667-0.667-4-1c0-2.667,0-5.333,0-8c-5.997-2.213-6.314-2.614-6-11c-1,0-2,0-3,0
	c0-0.333,0-0.667,0-1c-0.333,0-0.667,0-1,0c0-2.667,0-5.333,0-8c-0.333,0-0.667,0-1,0c0-1.333,0-2.667,0-4c-1-0.333-2-0.667-3-1
	c-0.864-2.459-1.09-7.56-2-10c-1,0-2,0-3,0c0.132-4.055-0.12-9.08-2-11c-1.139-1.139-0.003-0.398-2-1c0-0.667,0-1.333,0-2
	c-0.667,0-1.333,0-2,0c0-3,0-6,0-9c-5.292-0.95-5.299-3.625-5-10c-1,0-2,0-3,0c-1.094-2.078-1.611-1.771-2-5c-2.667,0-5.333,0-8,0
	c-0.596-3.31-1.006-7.419-1-12c0.333,0,0.667,0,1,0c0-0.333,0-0.667,0-1c2.333,0,4.667,0,7,0c0-0.333,0-0.667,0-1
	c1.361-1.166,1.528-1.825,2-4c2.667,0,5.333,0,8,0c2.576-6.762,6.129-5.343,15-5c0.333-1.667,0.667-3.333,1-5c2.667,0,5.333,0,8,0
	C265.786,67.169,265.207,66.81,272.016,67z"/>
<path fill-rule="evenodd" clip-rule="evenodd" fill="#FFFFFF" d="M351.016,91c0.667,0,1.333,0,2,0c-0.333-2-0.667-4-1-6
	c-0.333,0-0.667,0-1,0C351.016,87,351.016,89,351.016,91z"/>
<path fill-rule="evenodd" clip-rule="evenodd" fill="#FFFFFF" d="M384.016,121c0.684,2.927,1.113,3.274,4,4
	c0.463,2.391,1.158,3.145,2,5c1,0,2,0,3,0c0.417,1.84,0.813,3.957,2,5c1,0.333,2,0.667,3,1c0,1,0,2,0,3c3.927-0.111,7.145,0.075,9,2
	c0.333,0,0.667,0,1,0c0,1,0,2,0,3c6,0,12,0,18,0c1.079,2.874,1.044,7.69,1,12c-1.902,0.812-4.783,1.508-6,3c-0.333,1-0.667,2-1,3
	c-4.666,0-9.334,0-14,0c0,0.333,0,0.667,0,1c-2.667,0-5.333,0-8,0c0,2.667,0,5.333,0,8c-2.874,1.079-7.69,1.044-12,1
	c-0.667-3-1.333-6-2-9c-1.333-0.667-2.667-1.333-4-2c0-2.667,0-5.333,0-8c-1,0-2,0-3,0c0-0.333,0-0.667,0-1c-0.333,0-0.667,0-1,0
	c0-2.667,0-5.333,0-8c-0.333,0-0.667,0-1,0c0-1.667,0-3.333,0-5c-1.333,0-2.667,0-4,0c0-6,0-12,0-18c2.651-0.997,6.944-1.041,11-1
	C383.155,121.139,382.019,120.398,384.016,121z"/>
<path fill-rule="evenodd" clip-rule="evenodd" fill="#FFFFFF" d="M159.016,150c0,1,0,2,0,3c4.385,2.175,5.135,2.36,5,9
	c1.139,1.139,0.398,0.003,1,2c1,0,2,0,3,0c0,0.333,0,0.667,0,1c1.625,1.83,0.957,6.626,1,10c0.333,5.666,0.667,11.334,1,17
	c1,0,2,0,3,0c0,0.333,0,0.667,0,1c1.139,1.139,0.398,0.003,1,2c1.82,2.014,1.105,21.607,1,29c4.083,1.726,5.142,2.881,5,9
	c0.333,0,0.667,0,1,0c0,2,0,4,0,6c4,0,8,0,12,0c1,1.667,2,3.333,3,5c1,0.333,2,0.667,3,1c0,2,0,4,0,6c-1.667,0.667-3.333,1.333-5,2
	c0,1,0,2,0,3c-3.667,0.333-7.333,0.667-11,1c0,0.667,0,1.333,0,2c-0.667,0-1.333,0-2,0c-0.333,0.667-0.667,1.333-1,2
	c-2.667,0-5.333,0-8,0c-0.95,5.292-3.625,5.299-10,5c0-0.333,0-0.667,0-1c-1,0-2,0-3,0c0-0.333,0-0.667,0-1
	c-2.089-2.285-1.101-10.884-1-15c1.667-0.333,3.333-0.667,5-1c-0.333-13.999-0.667-28.001-1-42c-1.667-0.667-3.333-1.333-5-2
	c0-7.333,0-14.667,0-22c-2.089-2.285-1.101-10.884-1-15c-1,0-2,0-3,0c-0.333-0.635-2-2-2-2c0-4.666,0-9.334,0-14
	C153.332,150.125,155.423,149.982,159.016,150z"/>
<path fill-rule="evenodd" clip-rule="evenodd" fill="#FFFFFF" d="M106.016,161c0,1,0,2,0,3c2,0.333,4,0.667,6,1c0,1,0,2,0,3
	c0.333,0,0.667,0,1,0c0,0.333,0,0.667,0,1c1,0,2,0,3,0c2.909,1.991-0.605,4.175,6,5c0,1,0,2,0,3c0.333,0,0.667,0,1,0
	c2.069,2.463,3.363,1.633,4,6c1.333,0,2.667,0,4,0c0.492,2.732,0.982,5.18,1,9c1,0,2,0,3,0c0.361,0.695,2,2,2,2c0,2.333,0,4.667,0,7
	c1.667,0.667,3.333,1.333,5,2c0,4,0,8,0,12c1.265,0.263,4.599,1.275,5,2c0,3.667,0,7.333,0,11c0.344,7.596,1.561,16.16,0,24
	c-1,0.333-2,0.667-3,1c0.09,4.548,0.163,9.923-1,13c-1,0-2,0-3,0c-0.333,1.333-0.667,2.667-1,4c-1.333,0-2.667,0-4,0
	c-0.667,1.667-1.333,3.333-2,5c-1,0.333-2,0.667-3,1c0,0.667,0,1.333,0,2c-0.995,1.17-3.191,1.621-5,2c0,1,0,2,0,3
	c-0.333,0-0.667,0-1,0c-1.819,1.683-7.561,1.099-11,1c0-1,0-2,0-3c-2.078-1.094-1.771-1.611-5-2c0-2.333,0-4.667,0-7
	c1.333-0.333,2.667-0.667,4-1c-0.333-6.333-0.667-12.667-1-19c-1,0-2,0-3,0c0-0.333,0-0.667,0-1c-3.408-4.171,2.144-8.009-6-9
	c0.015-3.583-0.504-5.414-1-8c-1.333-0.333-2.667-0.667-4-1c-0.333-4.333-0.667-8.667-1-13c-0.333,0-0.667,0-1,0
	c0-0.333,0-0.667,0-1c-1,0-2,0-3,0c0.058-3.58-0.228-6.296-2-8c0-0.333,0-0.667,0-1c-1,0-2,0-3,0c-0.333-3-0.667-6-1-9
	c-1-0.333-2-0.667-3-1c-1.253-1.147-0.258-2.122-1-4c-0.333,0-0.667,0-1,0c0-3,0-6,0-9c-1.667-0.667-3.333-1.333-5-2
	c0-2.333,0-4.667,0-7c-0.333,0-0.667,0-1,0c0-0.333,0-0.667,0-1c-2.667,0-5.333,0-8,0c0-0.333,0-0.667,0-1c-0.333,0-0.667,0-1,0
	c0-1,0-2,0-3c-0.333,0-0.667,0-1,0c0-0.333,0-0.667,0-1c-2.667,0-5.333,0-8,0c0-0.333,0-0.667,0-1c-1.583-1.705-1.096-6.728-1-10
	c1.331-0.545,2.353-0.359,4-1c0-0.333,0-0.667,0-1c1.333,0,2.667,0,4,0c0.667-1.333,1.333-2.667,2-4c1.433-0.877,21.002-2.17,24-1
	c0,0.333,0,0.667,0,1c0.667,0,1.333,0,2,0c0.667,1.333,1.333,2.667,2,4c2.667,0,5.333,0,8,0c0,0.333,0,0.667,0,1
	C103.467,160.816,103.718,160.705,106.016,161z"/>
<path fill-rule="evenodd" clip-rule="evenodd" fill="#FFFFFF" d="M51.016,168c6.142,1.667,2.058,2.272,4,7c0.333,0,0.667,0,1,0
	c0,0.667,0,1.333,0,2c1.333,0.667,2.667,1.333,4,2l1,9c1.333,0.333,2.667,0.667,4,1c0.333,4.333,0.667,8.667,1,13
	c1.667,0,3.333,0,5,0c0.333,3,0.667,6,1,9c1,0,2,0,3,0c0,0.333,0,0.667,0,1c2.316,2.518,1.714,9.462,3,13c1,0,2,0,3,0
	c0.36,2.147,0.982,1.941,1,2c0,2,0,4,0,6c1.333,0.667,2.667,1.333,4,2c0.667,3,1.333,6,2,9c1,0,2,0,3,0c0,0.333,0,0.667,0,1
	c2.201,2.497-0.79,7.708,1,11c1.667,1,3.333,2,5,3c1.851,2.862-0.464,6.002,0,7c0.502,1.08,3.274,0.428,4,1
	c1.636,1.289,1.016,6.15,1,9c1,0,2,0,3,0c0,0.333,0,0.667,0,1c1.974,2.155,2.074,10.524,2,15c-1.135,0.844-0.146-0.127-1,1
	c-4,0-8,0-12,0c-0.667,1.667-1.333,3.333-2,5c-2.333,0-4.667,0-7,0l-1,1c0,1,0,2,0,3c-2.667,0.333-5.333,0.667-8,1
	c-0.667,1.333-1.333,2.667-2,4c-6.666,0-13.334,0-20,0c-1.382-2.612-1.769-1.693-2-6c0.333,0,0.667,0,1,0c0-1.333,0-2.667,0-4
	c0.333,0,0.667,0,1,0c1.139-1.139,0.003-0.398,2-1c0-3.667,0-7.333,0-11c-1.667-1-3.333-2-5-3c0-3.667,0-7.333,0-11
	c-1.667-0.667-3.333-1.333-5-2c0-2.333,0-4.667,0-7l-1-1c-1,0-2,0-3,0c-0.667-3.667-1.333-7.333-2-11c-1.333-1-2.667-2-4-3
	c0-2.333,0-4.667,0-7c-0.333,0-0.667,0-1,0c-0.333-0.667-0.667-1.333-1-2c-0.667,0-1.333,0-2,0c-2.068-1.751-1.908-5.18-2-9
	c-1.333-0.333-2.667-0.667-4-1c-0.333-2.667-0.667-5.333-1-8c-0.333,0-0.667,0-1,0c0-0.333,0-0.667,0-1c-1,0-2,0-3,0
	c-1.959-1.428-1.131-9.712-1-13c-0.333,0-0.667,0-1,0c0-0.333,0-0.667,0-1c-1,0-2,0-3,0c-1.278-0.605,0.304-0.454-1-1
	c-0.333-2.667-0.667-5.333-1-8c-4,0-8,0-12,0c-1.937-3.669-2.078-5.904-2-12c2.732-0.492,5.18-0.982,9-1c0-1,0-2,0-3
	c2.663-1.412,4.22-2.03,9-2c0-1,0-2,0-3c0.333,0,0.667,0,1,0c1.139-1.139,0.004-0.398,2-1c1.819-1.683,7.561-1.099,11-1
	c0.333-1.333,0.667-2.667,1-4c2.667,0,5.333,0,8,0c0.333-1.333,0.667-2.667,1-4c2.477-0.443,3.67-0.919,7-1
	C49.96,165.801,50.401,165.575,51.016,168z"/>
<path fill-rule="evenodd" clip-rule="evenodd" fill="#FFFFFF" d="M509.016,195c-0.667,2.667-1.333,5.333-2,8
	c-1.333,0.667-2.667,1.333-4,2c-0.667,13.999-1.333,28.001-2,42c-1,0-2,0-3,0c-0.667,3-1.333,6-2,9c-1.667,0.333-3.333,0.667-5,1
	c-1.094-2.078-1.611-1.771-2-5c-1,0-2,0-3,0c-0.332-0.632-2-2-2-2c0-4.333,0-8.667,0-13c2.013-2.231,1.088-17.331,1-22
	c-1.135-0.844-0.146,0.127-1-1c-4.181,0.116-6.778-0.255-9-2c-0.333-0.667-0.667-1.333-1-2c-3.689-1.833-3.584,2.278-7-2
	c-0.333,0-0.667,0-1,0c0-1.667,0-3.333,0-5c1-0.333,2-0.667,3-1c1.139-1.139,0.003-0.398,2-1c0.333-1.333,0.667-2.667,1-4
	c2.333,0,4.667,0,7,0c0.944-1.801,1.385-1.575,2-4c2.732-0.492,5.18-0.982,9-1c0.844-1.135-0.127-0.146,1-1c0-1,0-2,0-3
	c5.105-1.053,17.436-2.616,21,1c0.333,0,0.667,0,1,0c0,1.667,0,3.333,0,5c-1.135,0.844-0.146-0.127-1,1
	C511.016,195,510.016,195,509.016,195z"/>
<path fill-rule="evenodd" clip-rule="evenodd" fill="#FFFFFF" d="M455.016,219c0,2,0,4,0,6c1,0,2,0,3,0c0,0.333,0,0.667,0,1
	c0.333,0,0.667,0,1,0c0,1,0,2,0,3c1.667,0.667,3.333,1.333,5,2c0,1,0,2,0,3c1.333,0.333,2.667,0.667,4,1
	c0.333,1.333,0.667,2.667,1,4c1.333,0.333,2.667,0.667,4,1c0,1,0,2,0,3c0.333,0,0.667,0,1,0c0,0.333,0,0.667,0,1c1,0,2,0,3,0
	c0.667,1.667,1.333,3.333,2,5c1,0,2,0,3,0c0.333,1.333,0.667,2.667,1,4c1.333,0.333,2.667,0.667,4,1c0,1,0,2,0,3
	c0.333,0,0.667,0,1,0c0,0.333,0,0.667,0,1c1,0,2,0,3,0c1.278,0.605-0.304,0.454,1,1c0,1,0,2,0,3c3.087,0.705,4.254,1.949,5,5
	c1.333,0.333,2.667,0.667,4,1c0,2.667,0,5.333,0,8c1.135,0.844,0.146-0.127,1,1c1,0,2,0,3,0c0.679,3.778,1.009,8.878,1,14
	c1,0,2,0,3,0c0,0.333,0,0.667,0,1c0.333,0,0.667,0,1,0c0,2.333,0,4.667,0,7c1.333,0.333,2.667,0.667,4,1c0.492,2.732,0.982,5.18,1,9
	c4,0,8,0,12,0c1.094,2.078,1.611,1.771,2,5c1.333,0.333,2.667,0.667,4,1c0.594,3.715,0.581,2.289,0,6c-1.667,0.333-3.333,0.667-5,1
	c-0.333,1-0.667,2-1,3c-4.333,0.333-8.667,0.667-13,1c0,1.333,0,2.667,0,4c-1.135,0.844-0.146-0.127-1,1c-2.667,0-5.333,0-8,0
	c-0.667,1.333-1.333,2.667-2,4c-2.333,0.333-4.667,0.667-7,1c-0.667,1.333-1.333,2.667-2,4c-2.667,0-5.333,0-8,0
	c0-0.333,0-0.667,0-1c-1.667,0.333-3.333,0.667-5,1c-0.811,4.634-2.34,5.195-8,5c-1.593-1.485-5.892-1.092-9-1
	c-0.997-2.651-1.041-6.944-1-11c1.667-0.667,3.333-1.333,5-2c2.107-2.857-1.771-2.506,3-4c0-0.333,0-0.667,0-1c-1-0.333-2-0.667-3-1
	c0-2.667,0-5.333,0-8c-1.333,0-2.667,0-4,0c0.068-5.12-0.289-10.231-1-14c-1,0-2,0-3,0c-0.36-2.141-0.983-1.945-1-2c0-2,0-4,0-6
	c-1-0.333-2-0.667-3-1c-1.2-1.055-1.557-3.155-2-5c-1,0-2,0-3,0c0-0.333,0-0.667,0-1c-0.333,0-0.667,0-1,0c0-1,0-2,0-3
	c-2.391-0.463-3.145-1.158-5-2c0-1,0-2,0-3c-1,0-2,0-3,0c0-0.333,0-0.667,0-1c-0.333,0-0.667,0-1,0c0-1,0-2,0-3
	c-0.991-1.359-2.485-0.039-4-1c0-0.333,0-0.667,0-1c-0.667-0.333-1.333-0.667-2-1c0-0.667,0-1.333,0-2c-1.333-0.667-2.667-1.333-4-2
	c0-1,0-2,0-3c-6.69-0.909-3.223-3.435-6-5c-1,0-2,0-3,0c0-1,0-2,0-3c-0.333,0-0.667,0-1,0c0-0.333,0-0.667,0-1c-1,0-2,0-3,0
	c-1.35-0.982-0.016-2.548-1-4c-1.973-2.911-4.158,0.62-5-6c-2.667,0-5.333,0-8,0c-0.844-1.135,0.127-0.146-1-1c0-1,0-2,0-3
	c-2.732-0.492-5.18-0.982-9-1c0-4,0-8,0-12c1.333,0,2.667,0,4,0c0.463-2.391,1.158-3.145,2-5c4,0,8,0,12,0c0.333-1,0.667-2,1-3
	c1.856-2.249,4.833-1.94,9-2c0-1,0-2,0-3c0.333,0,0.667,0,1,0c0-0.333,0-0.667,0-1c1.365-0.765,11.629-0.148,14-1c0-1,0-2,0-3
	c2.732-0.492,5.18-0.982,9-1c0.844-1.135-0.127-0.146,1-1c0-1,0-2,0-3c2-0.333,4-0.667,6-1c0.333,0.667,0.667,1.333,1,2
	c0.333,0,0.667,0,1,0c-0.333,0.667-0.667,1.333-1,2c0.333,0,0.667,0,1,0c0,0.333,0,0.667,0,1c1,0,2,0,3,0
	c1.415,1.096,1.027,4.489,1,7c-1.135,0.844-0.146-0.127-1,1C457.016,219,456.016,219,455.016,219z"/>
<path fill-rule="evenodd" clip-rule="evenodd" fill="#FFFFFF" d="M356.016,244c5.666,0,11.334,0,17,0c0.333,3.667,0.667,7.333,1,11
	c-2.078,1.094-1.771,1.611-5,2c0,3,0,6,0,9c1.333,0.667,2.667,1.333,4,2c0,3.667,0,7.333,0,11c1.667,1,3.333,2,5,3c0,2,0,4,0,6
	c1.333,1,2.667,2,4,3c0,3.667,0,7.333,0,11c1.333,0.667,2.667,1.333,4,2c0.333,3,0.667,6,1,9c1,0,2,0,3,0c0,0.333,0,0.667,0,1
	c0.333,0,0.667,0,1,0c0,2.333,0,4.667,0,7l1,1c1,0,2,0,3,0c0.667,4.333,1.333,8.667,2,13c1,0.333,2,0.667,3,1c0,2.667,0,5.333,0,8
	c0.333,0,0.667,0,1,0c1.166,1.361,1.825,1.528,4,2c0,2.667,0,5.333,0,8c1,0,2,0,3,0c1.937,3.669,2.078,5.904,2,12
	c-0.333,0-0.667,0-1,0c0,1.333,0,2.667,0,4c-1.667,0.333-3.333,0.667-5,1c0,1,0,2,0,3c-0.333,0-0.667,0-1,0
	c-1.934,1.783-8.393,1.1-12,1c0,1,0,2,0,3c-0.333,0-0.667,0-1,0c-1.139,1.139-0.003,0.398-2,1c0,0.333,0,0.667,0,1
	c-2.333,0-4.667,0-7,0c0,1,0,2,0,3c-0.333,0-0.667,0-1,0c0,0.333,0,0.667,0,1c-3.333,0-6.667,0-10,0c0,0-0.178,0.693-2,1
	c-0.936,3.586-2.61,3.156-7,3c-0.844-1.135,0.127-0.146-1-1c0-1,0-2,0-3c-1,0-2,0-3,0c-1.643-3.097-1.898-1.795-2-7
	c1.135-0.844,0.146,0.127,1-1c1,0,2,0,3,0c0.333-1.333,0.667-2.667,1-4c0.333,0,0.667,0,1,0c0.536-2.951-1.664-2.137-2-3
	c0-2.333,0-4.667,0-7c-1,0-2,0-3,0c0-0.333,0-0.667,0-1c-3.763-4.578,3.042-10.789-5-13c-0.465-2.589-0.959-4.423-1-8
	c-5.343-2.352-4.29-4.65-4-12c-1.139-1.139-0.398-0.003-1-2c-4.334-1.01-4.22-3.617-4-9c-1,0-2,0-3,0c0-0.333,0-0.667,0-1
	c-1.059-1.176-1.699-7.213-2-9c-1,0-2,0-3,0c0-0.333,0-0.667,0-1c-0.333,0-0.667,0-1,0c0-2.667,0-5.333,0-8
	c-1.333-0.667-2.667-1.333-4-2c-0.667-4-1.333-8-2-12c-1,0-2,0-3,0c0-1,0-2,0-3c-2.663-1.412-4.22-2.03-9-2c0-1,0-2,0-3
	c-0.667,0-1.333,0-2,0c-1.367,5.109-3.459,2.615-5,5c0,1,0,2,0,3c-0.333,0-0.667,0-1,0c0,0.333,0,0.667,0,1c-1,0-2,0-3,0
	c0,4.333,0,8.667,0,13c3.67,1.582,4.142,2.513,4,8c0.333,0,0.667,0,1,0c0,1,0,2,0,3c1,0,2,0,3,0c0.333,4,0.667,8,1,12
	c1.135,0.844,0.146-0.127,1,1c1,0,2,0,3,0c-0.039,3.826,0.478,6.271,1,9c1,0,2,0,3,0c0,0.333,0,0.667,0,1c0.333,0,0.667,0,1,0
	c0,2,0,4,0,6c-1,0.333-2,0.667-3,1c-1.912,1.703-5.311,0.217-9,0c-0.333-1.667-0.667-3.333-1-5c-1.333,0-2.667,0-4,0
	c0-0.667,0-1.333,0-2c-6.028-3.059-5.299-6.083-5-15c-1,0-2,0-3,0c0-0.333,0-0.667,0-1c-3.185-2.927-0.182-4.691-2-8
	c-1.333-0.667-2.667-1.333-4-2c0-1.333,0-2.667,0-4c-0.333,0-0.667,0-1,0c-0.636-1.627-0.47-2.688-1-4c-2.665-0.018-5.7,0.378-7-1
	c-0.333-1-0.667-2-1-3c0,0-8.962-0.993-9-1c0-3.667,0-7.333,0-11c1.667-0.667,3.333-1.333,5-2c0-0.667,0-1.333,0-2
	c0.77-0.938,2.04-0.763,3-2c3.333,0,6.667,0,10,0c0.333-1.333,0.667-2.667,1-4c2.667,0,5.333,0,8,0c0.844-1.135-0.127-0.146,1-1
	c0-1,0-2,0-3c3.919-0.734,4.086-0.717,8,0c0,1,0,2,0,3c0.333,0,0.667,0,1,0c0-0.667,0-1.333,0-2c1.139-1.139,0.398-0.003,1-2
	c4.26-0.644,3.398-2.085,6-4c0-0.333,0-0.667,0-1c2.667,0,5.333,0,8,0c0-1.333,0-2.667,0-4c2.667-0.333,5.333-0.667,8-1
	c0.333-1.333,0.667-2.667,1-4c4-0.333,8-0.667,12-1c0.667-1,1.333-2,2-3c3-0.333,6-0.667,9-1
	C355.349,246.667,355.682,245.333,356.016,244z"/>
<path fill-rule="evenodd" clip-rule="evenodd" fill="#FFFFFF" d="M270.016,311c1.466,0.329,4.366,1.104,5,2c0,1,0,2,0,3
	c0.322,0.443,6.098,2.767,7,3c0,0.667,0,1.333,0,2c2,0.333,4,0.667,6,1c0,0.333,0,0.667,0,1c2.552,2.137,0.43,2.29,5,3
	c0,0.667,0,1.333,0,2c2.128,1.212,2.177,2.252,5,3c0,0.333,0,0.667,0,1c1,0,2,0,3,0c0,1,0,2,0,3c2,0.333,4,0.667,6,1
	c0.333,1.333,0.667,2.667,1,4c1,0,2,0,3,0c0,0.333,0,0.667,0,1c1.139,1.139,0.398,0.003,1,2c5.854,1.236,7.653,5.652,14,7
	c0,1,0,2,0,3c1.333,0.333,2.667,0.667,4,1c0.465,2.589,0.959,4.423,1,8c1.333,0.333,2.667,0.667,4,1c-0.064,4.583,0.374,8.696,1,12
	c1,0.333,2,0.667,3,1c0.333,3,0.667,6,1,9c1,0,2,0,3,0c0.877,4.522,0.859,7.482,0,12c-4.432,0.292-4.432,1.241-7,3
	c0,0.333,0,0.667,0,1c-3.333,0-6.667,0-10,0c-1.096,6.028-4.037,5.332-11,5c-0.333-1-0.667-2-1-3c-1.139-1.139-0.398-0.003-1-2
	c-1,0-2,0-3,0c0-0.333,0-0.667,0-1c-0.333,0-0.667,0-1,0c0-1,0-2,0-3c-6.587-0.687-3.259-3.398-6-5c-3.829-2.238-6.161,2.548-8-4
	c-6.69-0.909-3.223-3.435-6-5c-1,0-2,0-3,0c-0.333-1.333-0.667-2.667-1-4c-2.667,0-5.333,0-8,0c-0.463-2.391-1.158-3.145-2-5
	c-1,0-2,0-3,0c-0.333-1.333-0.667-2.667-1-4c-1,0-2,0-3,0c-0.333-1.333-0.667-2.667-1-4c-2.884-0.021-6.592-0.613-8-2
	c-1.139-1.139-0.398-0.003-1-2c-1.81-0.395-4-0.822-5-2c-0.333-1-0.667-2-1-3c-0.667,0-1.333,0-2,0c-0.333-0.667-0.667-1.333-1-2
	c-0.333,0-0.667,0-1,0c-0.333-1-0.667-2-1-3c-2.333,0-4.667,0-7,0c-0.333-1-0.667-2-1-3c-0.667-0.333-1.333-0.667-2-1
	c0,0.333,0,0.667,0,1c0.333,0,0.667,0,1,0c0,1.333,0,2.667,0,4c1.333,0.333,2.667,0.667,4,1c0.333,4,0.667,8,1,12
	c1.333,0.333,2.667,0.667,4,1c0.333,2.667,0.667,5.333,1,8c1.333,0.333,2.667,0.667,4,1c0,2.667,0,5.333,0,8
	c1.135,0.844,0.146-0.127,1,1c1,0,2,0,3,0c0.326,1.914,1,2,1,2c0,3.333,0,6.667,0,10c0.333,0,0.667,0,1,0
	c2.099,2.584,2.285,0.392,3,5c1,0,2,0,3,0c1.094,2.078,1.611,1.771,2,5c5.743,0.423,5.393,3.573,9,5c5.541,2.192,8.091-3.157,9,5
	c-3.992,1.454-4.819,0.511-5,6c-2.667,0-5.333,0-8,0c-0.333,1.333-0.667,2.667-1,4c-2.667,0-5.333,0-8,0
	c-0.844,1.135,0.127,0.146-1,1c0,1,0,2,0,3c-5.501,1.03-9.34,0.316-15,0c-0.333-3-0.667-6-1-9c4.083-1.726,5.142-2.881,5-9
	c-0.333,0-0.667,0-1,0c0-2.333,0-4.667,0-7c-1.333-0.333-2.667-0.667-4-1c-0.333-4-0.667-8-1-12c-1.333-0.333-2.667-0.667-4-1
	c0-2.333,0-4.667,0-7c-4.812-2.396-5.215-2.73-5-10c-1.333-0.333-2.667-0.667-4-1c-0.596-3.31-1.006-7.419-1-12
	c-0.333,0-0.667,0-1,0c0-0.333,0-0.667,0-1c-1,0-2,0-3,0c-1.292-0.935-1.496-7.553-2-9c-1,0-2,0-3,0c0-3.667,0-7.333,0-11
	c1.719-0.65,3.14-0.952,6-1c1.139,1.139,0.003,0.398,2,1c0.333,1,0.667,2,1,3c0.667,0,1.333,0,2,0c-1.139-1.139-0.003-0.398-2-1
	c0-1.333,0-2.667,0-4l-9-1c0-0.333,0-0.667,0-1c-2.582-2.104-0.396-2.283-5-3c-0.333-1.333-0.667-2.667-1-4
	c-1.333-0.333-2.667-0.667-4-1c-0.333-1-0.667-2-1-3c-5.333-0.667-10.667-1.333-16-2c-0.333-3.333-0.667-6.667-1-10
	c1.135-0.844,0.146,0.127,1-1c3.583,0.015,5.414-0.504,8-1c0-1,0-2,0-3c2.033-0.361,2-1,2-1c2,0,4,0,6,0
	c0.667-1.333,1.333-2.667,2-4c0.667,0,1.333,0,2,0c0-0.333,0-0.667,0-1c3.667,0,7.333,0,11,0c0-1.333,0-2.667,0-4
	c2.667,0,5.333,0,8,0c2.878-6.59,7.91-5.297,17-5c0,0.333,0,0.667,0,1c0.333,0,0.667,0,1,0c0,1,0,2,0,3c0.935,1.383,2.568,0.021,4,1
	c0.333,1,0.667,2,1,3c1,0.333,2,0.667,3,1c0.667,1,1.333,2,2,3c0.667,0,1.333,0,2,0c0,0.333,0,0.667,0,1c0.667,0,1.333,0,2,0
	c0,0.333,0,0.667,0,1C269.002,309.708,268.349,305.754,270.016,311z"/>
<path fill-rule="evenodd" clip-rule="evenodd" fill="#FFFFFF" d="M438.016,309c-0.039,3.826,0.478,6.271,1,9c1,0,2,0,3,0
	c0,0.333,0,0.667,0,1c1.583,1.705,1.096,6.728,1,10c1,0,2,0,3,0c0,0.333,0,0.667,0,1c1.139,1.139,0.398,0.003,1,2
	c1.485,1.593,1.092,5.892,1,9c1,0,2,0,3,0c0.333,3.333,0.667,6.667,1,10c-0.333,0-0.667,0-1,0c-1.919,2.618-3.322,1.74-4,6
	c-2.732,0.492-5.18,0.982-9,1c-1.373,5.635-7.287,4.281-14,4c-0.869,3.795-2.31,4.068-7,4c-3.058-4.978-5.966-2.316-6-11
	c2.716-1.164,4.18-1.78,5-5c1.333-0.333,2.667-0.667,4-1c-0.015-3.583,0.504-5.414,1-8c1.333-0.333,2.667-0.667,4-1
	c-0.05-10.521,0.534-21.938,1-31C430.85,308.505,433.278,308.117,438.016,309z"/>
<path fill-rule="evenodd" clip-rule="evenodd" fill="#FFFFFF" d="M173.016,331c0,0.667,0,1.333,0,2c4.426,2.33,7.073,2.087,14,2
	c0.844,1.135-0.127,0.146,1,1c0,1,0,2,0,3c1,0,2,0,3,0c0,0.333,0,0.667,0,1c0.333,0,0.667,0,1,0c0,1,0,2,0,3
	c2.589,0.465,4.423,0.959,8,1c0,0.667,0,1.333,0,2c1.195,0.87,1.172,2.432,2,3c1,0,2,0,3,0c1.513,1.16,1.054,5.343,1,8
	c1.333,0.333,2.667,0.667,4,1c0,1,0,2,0,3c0.333,0,0.667,0,1,0c0,0.333,0,0.667,0,1c1,0,2,0,3,0c0,0.333,0,0.667,0,1
	c0.333,0,0.667,0,1,0c0,2.333,0,4.667,0,7c0.333,0,0.667,0,1,0c1.166,1.361,1.825,1.528,4,2c0,3,0,6,0,9c1.333,1,2.667,2,4,3
	c0,1.333,0,2.667,0,4c0.333,0,0.667,0,1,0c-0.333,3.667-0.667,7.333-1,11c0,10.666,0,21.334,0,32c-1.333,0.333-2.667,0.667-4,1
	c0,2.333,0,4.667,0,7c-5.084,1.98-3.97,1-6,6c-1,0-2,0-3,0c0,1,0,2,0,3c-0.333,0-0.667,0-1,0c0,0.333,0,0.667,0,1c-1,0-2,0-3,0
	c-0.333,1-0.667,2-1,3c-2.12,2.544-3.635-0.065-5,5c-3,0-6,0-9,0c-0.371-4.174-0.987-8.658-1-14c1.333,0,2.667,0,4,0c0-2,0-4,0-6
	c-1.135-0.844-0.146,0.127-1-1c-1,0-2,0-3,0c-0.333-3-0.667-6-1-9c-1.333,0-2.667,0-4,0c0.097-5.262-0.56-9.315-2-13c-1,0-2,0-3,0
	c-0.012-3.837,0.009-7.23-2-9c-1-0.333-2-0.667-3-1c0-3.333,0-6.667,0-10c-0.333,0-0.667,0-1,0c0-0.667,0-1.333,0-2c-1,0-2,0-3,0
	c0-0.333,0-0.667,0-1c-0.333,0-0.667,0-1,0c0-2.333,0-4.667,0-7c-2.391-0.463-3.145-1.158-5-2c-0.025-2.697,0.559-6.792-1-8
	c-1.284-0.995-3.182,0.425-4-1c0-3.667,0-7.333,0-11c-1.333-0.333-2.667-0.667-4-1c-0.465-2.589-0.959-4.423-1-8
	c-4.148-0.794-3.579-2.019-6-4c0-0.333,0-0.667,0-1c-4.311-2.458-7.001,3.721-8-5c-1.333,0-2.667,0-4,0
	c-0.702-4.032-0.404-3.661,0-8c1,0,2,0,3,0c0-0.333,0-0.667,0-1c0.333,0,0.667,0,1,0c0-1,0-2,0-3c5.666-0.333,11.334-0.667,17-1
	c0,0.333,0,0.667,0,1C163.682,331,168.35,331,173.016,331z"/>
<path fill-rule="evenodd" clip-rule="evenodd" fill="#FFFFFF" d="M137.016,371c1.333,0,2.667,0,4,0c-0.039,3.826,0.478,6.271,1,9
	c1,0,2,0,3,0c0,0.333,0,0.667,0,1c0.917,1.021,1.853,10.083,2,12c4.334,1.01,4.22,3.617,4,9c1,0,2,0,3,0c0.378,0.755,2,2,2,2
	c0,2.333,0,4.667,0,7l1,1c1,0,2,0,3,0c-0.112,6.81,0.967,8.402,2,13c1,0,2,0,3,0c0,2.667,0,5.333,0,8c5.859,2.173,5.33,1.976,5,10
	c1.333,0,2.667,0,4,0c0,1.333,0,2.667,0,4c1.135,0.844,0.146-0.127,1,1c1,0,2,0,3,0c0,1,0,2,0,3c0.333,0,0.667,0,1,0
	c0,0.333,0,0.667,0,1c2.667,0,5.333,0,8,0c0,3.333,0,6.667,0,10c-13.332,0-26.668,0-40,0c-1.77-4.831-1.191-5.19-8-5
	c0-0.667,0-1.333,0-2c-1.118-0.27-6.434-2.361-7-3c-0.333-1-0.667-2-1-3c-1,0-2,0-3,0c-0.333-1-0.667-2-1-3
	c-1.036-1.197-3.168-1.564-5-2c0-1,0-2,0-3c-0.333,0-0.667,0-1,0c0-0.333,0-0.667,0-1c-1,0-2,0-3,0c-0.333-2.333-0.667-4.667-1-7
	c-1-0.333-2-0.667-3-1c-1.31-1.238-0.885-3.499-1-6c-0.333,0-0.667,0-1,0c0-1,0-2,0-3c-1,0-2,0-3,0c0-0.333,0-0.667,0-1
	c-2.13-2.315-1.813-8.745-3-12c-1,0-2,0-3,0c-0.333-11.666-0.667-23.334-1-35c-0.023-1.665-1-5-1-5c0.333,0,0.667,0,1,0c0-1,0-2,0-3
	c1,0,2,0,3,0c-0.015-3.583,0.504-5.414,1-8c1.801-0.944,1.575-1.385,4-2c0.684-2.927,1.113-3.274,4-4c0-2.333,0-4.667,0-7
	c2.663-1.412,4.22-2.03,9-2c0.333-1.333,0.667-2.667,1-4c1.333,0,2.667,0,4,0c0-1,0-2,0-3c3.097-1.643,1.795-1.898,7-2
	c0.918,2.437,1.037,6.193,1,10c0.991,1.1,1.865,6.436,1,9c-0.333,0-0.667,0-1,0c0,0.667,0,1.333,0,2c-0.333,0-0.667,0-1,0
	c-0.546,2.941,1.673,2.15,2,3C137.016,363,137.016,367,137.016,371z"/>
</svg>
