<?xml version="1.0" encoding="utf-8"?>
<!-- Generator: Adobe Illustrator 15.0.0, SVG Export Plug-In  -->
<!DOCTYPE svg PUBLIC "-//W3C//DTD SVG 1.1//EN" "http://www.w3.org/Graphics/SVG/1.1/DTD/svg11.dtd" [
	<!ENTITY ns_flows "http://ns.adobe.com/Flows/1.0/">
]>
<svg version="1.1"
	 xmlns="http://www.w3.org/2000/svg" xmlns:xlink="http://www.w3.org/1999/xlink" xmlns:a="http://ns.adobe.com/AdobeSVGViewerExtensions/3.0/"
	 x="0px" y="0px" width="498px" height="460px" viewBox="55 165 498 460"
	 overflow="visible" enable-background="new 55 165 498 460" xml:space="preserve" fill="#5ab744">
<defs>
</defs>
<g>
	<defs>
		<rect id="SVGID_1_" width="612" height="792"/>
	</defs>
	<clipPath id="SVGID_2_">
		<use xlink:href="#SVGID_1_"  overflow="visible"/>
	</clipPath>
	<path clip-path="url(#SVGID_2_)" d="M149.5,199.5h4c0.605,1.604,0.881,2.375,1,5c1.667,0.333,3.333,0.667,5,1v3h1v1
		c1.327,1.01,3.044-0.32,4,1v3c0.641,0.897,3.528,1.674,5,2v3h1c1.166,1.361,1.825,1.528,4,2c-0.071,6.372,1.441,9.013,2,14h3v1
		c2.045,2.271,1.087,18.217,1,23h1c1.624,2.679-1.202,10.254-2,11c-1.139,1.139-0.003,0.398-2,1v14h-1v1h-3c-0.667,3-1.333,6-2,9h-3
		c-0.333,1.667-0.667,3.333-1,5c-1.333,0.333-2.667,0.667-4,1v8c-3.992,1.454-4.819,0.511-5,6h-4v3c-3.453,1.709-4.807,1.949-5,7
		c-0.417,0.579-1.633,0.146-1,2h1c1.593,1.485,5.892,1.092,9,1v-4c4.666-0.333,9.334-0.667,14-1v-8c1-0.333,2-0.667,3-1
		c1.202-1.058,1.553-3.153,2-5h4v-4c1.333-0.333,2.667-0.667,4-1c0.924-4.734,2.1-4.44,6-6v-3h3v-1h1v-3c0.64-0.894,3.529-1.679,5-2
		v-4c1.667-0.333,3.333-0.667,5-1v-3c2.667-0.333,5.333-0.667,8-1c1.98-5.084,1-3.97,6-6v-4h4c0.333-1.667,0.667-3.333,1-5h4v-3
		c0.695-0.361,2-2,2-2h7c0.667-1.667,1.333-3.333,2-5h12c1.139,1.139,0.003,0.398,2,1v14c-3,1-6,2-9,3c-0.333,1-0.667,2-1,3
		c-1.424,0.971-3.103-0.406-4,1v4c-1.667,1.333-3.333,2.667-5,4v1h-4v3c-2.078,1.094-1.771,1.611-5,2v4h-4v9
		c-1.667,0.667-3.333,1.333-5,2v3h-1c-2.032,2.325-0.803,1.715-5,2v2c5.619-0.116,5.2-1.059,9-3v-1h4c1.401-0.889,0.012-2.629,1-4
		c0.965-1.339,2.617,0.001,4-1c1.334-0.966-0.003-2.625,1-4c1.667-0.667,3.333-1.333,5-2v-3c1-0.333,2-0.667,3-1v1h8v-1h1v1h3
		c0.333,9.333,0.667,18.667,1,28h12c0.844-1.135-0.127-0.146,1-1v-3c1.333-0.333,2.667-0.667,4-1c0.333-1.333,0.667-2.667,1-4h3v-1
		h1c1.008-1.341-0.327-3.042,1-4h3c1.34-0.968,0-2.608,1-4c0.959-1.336,2.635,0.004,4-1c0.667-1.667,1.333-3.333,2-5h3v-4
		c1.333-0.333,2.667-0.667,4-1c0.32-1.004,1.412-8.624,2-9h2c1.139-1.139,0.003-0.398,2-1v-3h1c2.941-2.906,3.683,0.377,4-6h4
		c0.333-1.667,0.667-3.333,1-5h3v-1c1.361-1.166,1.528-1.825,2-4h14c0.667,1.667,1.333,3.333,2,5h3v20c-1.333,0.333-2.667,0.667-4,1
		v13l-4,2c-0.333,3.667-0.667,7.333-1,11c1,0.333,2,0.667,3,1c0.924-4.734,2.1-4.44,6-6v-3c1.333-0.333,2.667-0.667,4-1v-3
		c4.734-0.924,4.44-2.1,6-6h3c0.513-2.527,0.962-4.014,3-5h2c0.667-1.667,1.333-3.333,2-5h18c0.667,1.667,1.333,3.333,2,5
		c1.318,0.983,3.183-0.433,4,1v13h3v1c1.059,1.177,1.699,7.214,2,9h7c0.844-1.135-0.127-0.146,1-1v-3c1.667-0.333,3.333-0.667,5-1
		v-4c1.604-0.605,2.375-0.881,5-1v-4c2.667-0.333,5.333-0.667,8-1c1.326-3.091,1.501-3.851,6-4c0.333-1.667,0.667-3.333,1-5h3v-1h1
		c1.01-1.327-0.32-3.044,1-4h3c0.897-0.641,1.674-3.528,2-5h4v-3c0.765-0.383,2-2,2-2h7c1.425-0.836,0.015-2.667,1-4
		c1.667-0.667,3.333-1.333,5-2v-3c2.732-0.492,5.18-0.982,9-1c2.646-6.915,6.966-5.338,16-5v3h1c-0.333,4.333-0.667,8.667-1,13h-3v1
		c-2.906,2.941,0.377,3.683-6,4v3h-1c-1.196,1.398-3.241,2.207-5,3v3c-2.732,0.492-5.18,0.982-9,1v3c-2.078,1.094-1.771,1.611-5,2v3
		h-1c-1.166,1.361-1.825,1.528-4,2v3h-1c-1.139,1.139-0.003,0.398-2,1v1h-7v4h-4c-1.119,6.242-1.012,15.247-1,23
		c1.667,0.333,3.333,0.667,5,1v4h7c0.823-1.876,1.481-2.616,2-5h13c1.98-5.084,1-3.97,6-6v-3h8c0.809-1.314,0.704-1.178,2-2v-3h3v-1
		h1v-3c1-1.364,2.403-0.083,4-1c0.346-0.198,0.935-1.439,2-2v-3c1.333-0.333,2.667-0.667,4-1v-3h1v-1h3c1.605-1.243,1.07-6.188,1-9
		c1.583-1.705,1.096-6.728,1-10h3c0.809-1.314,0.704-1.178,2-2v-8h3c0.418-0.9,2-2,2-2c2.101-4.589-3.291-6.114,3-8
		c1.139-1.139,0.003-0.398,2-1c0.11-9.974,4.328-7.131,6-14h3v-1c1.361-1.166,1.528-1.825,2-4c3.667-0.333,7.333-0.667,11-1v-1
		c4.333,0.333,8.667,0.667,13,1c0.667,4,1.333,8,2,12h2c-0.578,2.346-0.918,2.357-2,4h-1v7h-1c-0.835,2.855-0.021,5.405-1,8h-3
		c-0.578,3.78-1.359,6.089-5,7c-0.241,1.567-0.826,7.128-2,8c-1.356,1.007-3.031-0.321-4,1c-1.003,1.368,0.347,3.049-1,4h-3
		c-3.378,2.395,1.799,4.591-6,5v4c-1.667,0.333-3.333,0.667-5,1v8c1.135,0.844,0.146-0.127,1,1h3v3h1c2.641,2.398,13.371,1.101,18,1
		v-3h1c1.625-1.479,9.65-2.02,13-2c1.938,3.669,2.078,5.904,2,12h-1v3h-1v1h-4c-0.333,1.333-0.667,2.667-1,4
		c-2.667,0.333-5.333,0.667-8,1c-2.646,6.915-6.966,5.338-16,5v1c-1.139,1.139-0.398,0.003-1,2c-2.541-0.151-3.515-0.055-5-1v-1h-2
		v-1h-11c-0.492-2.732-0.982-5.18-1-9c-1.135-0.844-0.146,0.127-1-1h-3c0.039-3.826-0.478-6.271-1-9h-7
		c-0.844,1.135,0.127,0.146-1,1v3c-1.667,0.333-3.333,0.667-5,1v4h-3c-1,1.667-2,3.333-3,5h-3c-1.33,0.937,0.012,2.695-1,4
		c-1.249,1.61-6.184,1.062-9,1c-1.579,7.192-3.987,3.057-6,6v3c-0.62,1.271-0.438-0.297-1,1h-3c-0.333,1.333-0.667,2.667-1,4h-5v1
		h-28c-0.333-1-0.667-2-1-3c-1.139-1.139-0.398-0.003-1-2h-7c-0.667-1.667-1.333-3.333-2-5c-1.318-0.983-3.183,0.433-4-1v-13
		c-4.554,0.542-2.523,0.947-5,3v1c-2.215,1.301-6.808-0.056-9,2c-1.139,1.139-0.398,0.003-1,2h-3c-0.333-1-0.667-2-1-3
		c-3.826,0.039-6.271-0.478-9-1c-0.842-2.232-1.029-5.438-1-9h-4c-0.463-2.391-1.158-3.145-2-5h-3c-0.492-2.732-0.982-5.18-1-9h-8v3
		h-1c-1.166,1.361-1.825,1.528-4,2v4h-8c-0.667,1.667-1.333,3.333-2,5c-1.362,1.005-3.042-0.337-4,1c-1,1.396,0.333,3.024-1,4
		c-1.337,0.978-3.181-0.435-4,1v8h-3v1h-1c-1.01,1.327,0.32,3.044-1,4h-3c-0.897,0.641-1.674,3.528-2,5h-3v1h-1
		c-0.975,1.334,0.439,3.191-1,4h-13c-2.233-6.026-1.051-17.236-1-25h4v-18c4.083-1.726,5.142-2.881,5-9
		c-1.135-0.844-0.146,0.127-1-1h-3c-0.333,1.333-0.667,2.667-1,4c-2.667,0.333-5.333,0.667-8,1v4c-1.801,0.944-1.575,1.385-4,2
		c-0.723,2.762-0.279,2.237-3,3v1h-3c-0.343,5.443-0.701,3.176-3,6h-1v6c0,0-0.621,0.024-1,2h-4v4c-2.732,0.492-5.18,0.982-9,1
		c-0.844,1.135,0.127,0.146-1,1v3h-9c-0.844,1.135,0.127,0.146-1,1v3h-3c-0.723-2.762-0.279-2.237-3-3v-1c-2,0.333-4,0.667-6,1v-1
		h-2c-0.333-1.333-0.667-2.667-1-4h-3v-1c-2.21-2.294-2.091-8.302-2-13h-3v3h-1c-4.171,3.408-8.009-2.144-9,6h-4v4
		c-1.667,0.667-3.333,1.333-5,2v3h-3v1h-1v3c-0.64,0.894-3.529,1.679-5,2v3h-1v1h-8v3c-3.316,1.756-4.368,2.058-10,2
		c-1.98-5.084-1-3.97-6-6c0.118-3.603,0.77-10.07-1-12c-2.232-2.013-17.331-1.088-22-1v3h-1c-1.155,1.05-6.228,1.7-8,2v3h-1v1
		c-3,0.333-6,0.667-9,1v4h-3v1c-1.361,1.166-1.528,1.825-2,4h-13v3h-1c-3.041,2.9-6.425,0.495-9,2v1c-1.139,1.139-0.398,0.003-1,2
		c-5.125,0.457-11.553,0.989-18,1c-0.706-1.867-0.993-3.91-1-7h-1v-7c1.667-0.667,3.333-1.333,5-2v-3c0.969-1.256,2.837-0.841,5-1
		v-4c4.333-0.333,8.667-0.667,13-1l2-4h7c1.418-0.832,0.003-2.71,1-4c1.063-1.375,3.628-0.884,6-1v-1h3v-3h1v-1h4v-8
		c1.667-0.667,3.333-1.333,5-2c0.997-1.384-0.199-2.941,1-4c1-0.333,2-0.667,3-1v-3c0.951-1.343,2.641,0.005,4-1
		c0.667-1.667,1.333-3.333,2-5h3v-3h1v-1h-1v-4c1-0.333,2-0.667,3-1c1.139-1.139,0.003-0.398,2-1v-9c1.333-0.333,2.667-0.667,4-1v-3
		h1v-1c1.333-0.975,3.191,0.439,4-1v-14h-1v-12c0,0-0.694-0.188-1-2h-3v-1h-1v-8h-1v-1h-4c-0.333-1.667-0.667-3.333-1-5h-4
		c-0.333-1.667-0.667-3.333-1-5h-4c-0.463-2.391-1.158-3.145-2-5h-3c-0.49-2.53-0.979-4.014-3-5h-2c-1.329-0.937,0.012-2.698-1-4
		c-1.239-1.594-6.193-1.087-9-1v-3c-0.724-0.367-2-2-2-2h-8v-1h-1c-2.14-2.781,1.771-2.506-3-4v14c-1.801,0.944-1.575,1.385-4,2v4
		h-1c0.333,6.666,0.667,13.334,1,20h-1v1h-3v24h-4c0.333,9.666,0.667,19.334,1,29c-1.333,0.333-2.667,0.667-4,1v23l-4,2
		c-1.17,2.176-0.096,10.564-1,13h-3v4c-1.801,0.944-1.574,1.385-4,2c-0.88,3.398-1.861,3.065-6,3v-2h-1v-19h-1
		c-1.182-4.253,0.464-10.05,1-13h2c1.958-1.351,1.004-8.835,1-12c-0.333-10.666-0.667-21.334-1-32h3v-1h1v-7
		c-1.139-1.139-0.398-0.003-1-2c-1-0.333-2-0.667-3-1v-2c1-0.333,2-0.667,3-1v-15h-1v-16h1v-2c1-0.667,2-1.333,3-2
		c1.52-3.249-1.013-7.653,1-10v-1h4v-4h1v-1c3.336-0.026,4.527-0.525,7-1v-2c-1.827-0.421-3.973-0.81-5-2c-0.333-1-0.667-2-1-3
		c-2.429-1.705-8.08-0.995-12-1c-0.95-5.292-3.625-5.299-10-5c-0.965-5.381-1.011-13.147-1-20c5.776-2.142,16.507-1.051,24-1
		c0.667,1.667,1.333,3.333,2,5h18c1.713,3.402,2.199,3.813,6,5h9c0.667,1.667,1.333,3.333,2,5h7c1,1.667,2,3.333,3,5
		c1.44,0.988,3.021-0.349,4,1s-0.429,3.164,1,4C145.495,197.422,148.718,189.234,149.5,199.5"/>
	<path clip-path="url(#SVGID_2_)" fill="#000" d="M506.5,282.5h3v-4c3.083-1.148,4.005-0.47,5-4h-7
		C506.625,276.816,506.482,278.907,506.5,282.5"/>
	<path clip-path="url(#SVGID_2_)" d="M501.5,284.5v8c4.084-1.077,3.216-3.138,3-8H501.5z"/>
	<polygon clip-path="url(#SVGID_2_)" points="206.5,317.5 210.5,317.5 210.5,313.5 207.5,313.5 207.5,314.5 206.5,314.5 	"/>
	<path clip-path="url(#SVGID_2_)" d="M202.5,318.5v4c1-0.333,2-0.667,3-1v-3H202.5z"/>
	<rect x="198.5" y="324.5" clip-path="url(#SVGID_2_)" width="2" height="3"/>
	<path clip-path="url(#SVGID_2_)" d="M132.5,370.5c5.12-0.068,10.231,0.289,14,1v3c3.667,0.667,7.333,1.333,11,2v3
		c2.667,0.333,5.333,0.667,8,1c0.333,1.333,0.667,2.667,1,4h4c0.844,1.135-0.127,0.146,1,1v3c2.391,0.463,3.145,1.158,5,2v3h3v1h1
		c1.01,1.327-0.32,3.044,1,4h3c0.897,0.641,1.674,3.528,2,5h4v8c1.667,0.667,3.333,1.333,5,2v3c2.391,0.463,3.145,1.158,5,2
		c0.028,2.699-0.561,6.79,1,8c1.283,0.995,3.183-0.425,4,1v35c1.583,1.705,1.096,6.728,1,10h-1v1h-3c-1.292,0.936-1.496,7.553-2,9
		h-3c-0.333,1.667-0.667,3.333-1,5h-4v3h-1v1h-7c-0.667,1.667-1.333,3.333-2,5h-3c-0.333,1.333-0.667,2.667-1,4
		c-3.333,0.333-6.667,0.667-10,1v2c-1.333,0.333-2.667,0.667-4,1v1c-2.894,1.03-6.944,0.222-9,1v3c-3,0.333-6,0.667-9,1v3h-1
		c-1.934,1.783-8.393,1.1-12,1c0.178,5.568,0.8,13.258-2,16c-1.139,1.139-0.003,0.398-2,1v9h4c0.403,1.83,0.819,3.973,2,5
		c1,0.333,2,0.667,3,1v2c-1.801,0.944-1.575,1.385-4,2c-0.333,1.333-0.667,2.667-1,4c-1.333,0.333-2.667,0.667-4,1v7
		c-3.334,1.249-9.175,1.047-14,1c-2.051-5.527-1.051-15.778-1-23c-2.295-2.522-1.101-12.542-1-17h-4v-1h-1v-3
		c-1.333-0.333-2.667-0.667-4-1c0.365-5.437,0.679-3.172,3-6h1v-3c1.333-0.333,2.667-0.667,4-1v-3h1v-4h-1
		c-1.271-4.857,0.645-10.274,1-14c1-0.333,2-0.667,3-1c-0.333-8.666-0.667-17.334-1-26c2.078-1.094,1.771-1.611,5-2
		c-0.333-10.333-0.667-20.667-1-31c1.135-0.844,0.146,0.127,1-1h3v-21c-1.667-0.667-3.333-1.333-5-2c-2.2-3.146,1.785-4.232-4-6
		c-0.333-2-0.667-4-1-6c-3.992-1.454-4.819-0.511-5-6h1v-1h3v-4c1.667-0.333,3.333-0.667,5-1v-4h3v-1h1v-2h1
		c0.333-0.667,0.667-1.333,1-2c1-0.333,2-0.667,3-1v-3c0.954-1.245,2.846-0.864,5-1C132.105,367.104,132.381,367.875,132.5,370.5"/>
	<path clip-path="url(#SVGID_2_)" d="M134.5,395.5c0.333,1,0.667,2,1,3h1v-3H134.5z"/>
	<path clip-path="url(#SVGID_2_)" fill="#000" d="M138.5,400.5v2h3c0.566,1.122,1.786,1.626,2,2v3c1,0.333,2,0.667,3,1
		c0.933,0.765,0.771,2.042,2,3v17c0.021,0.114,1.614,0.384,1,2c-1.667,1-3.333,2-5,3c-1.122,2.051,0.182,13.795-1,17h-3v22
		c-4.92,2.154-4.274,4.094-4,11c2.089,2.285,1.101,10.884,1,15c1.867,0.706,3.91,0.993,7,1c0.333-1.333,0.667-2.667,1-4h8
		c0.667-1.667,1.333-3.333,2-5h7v-1c3.067-2.81-0.584-3.644,6-4v-3h1v-1h6v-1c2.564-1.914,1.751-3.409,6-4v-12
		c4.92-2.154,4.274-4.094,4-11c-5.108-2.834-5.211-7.791-5-16c-5.292-0.95-5.299-3.625-5-10h-4c-0.333-1.333-0.667-2.667-1-4h-3v-1
		c-1.361-1.166-1.528-1.825-2-4h-3v-1h-1v-3h-3c-1.094-2.078-1.611-1.771-2-5h-4v-1h-1v-3c-2.391-0.463-3.145-1.158-5-2v-3H138.5z"
		/>
	<path clip-path="url(#SVGID_2_)" d="M439.5,407.5c1.833,9.471,1.011,22.901,1,34c-0.004,4.8,0.279,10.58-2,13v1h-8
		c0.039,3.826-0.479,6.271-1,9h-3v1h-1c-1.925,3.491,1.343,9.314-1,12v1c-1.331,0.977-3.19-0.438-4,1v17h-3v1
		c-2.17,2.421-1.085,21.764-1,27h-1c0.333,1,0.667,2,1,3h2c0.463-2.391,1.158-3.145,2-5h3v-3h1v-1h5c1.148-4.388,5.188-4.518,9-6v-3
		h3c2.009-4.518,1.934-2.549,5-5c0.333-1,0.667-2,1-3c1.001-1.173,3.187-1.614,5-2v-3h1v-1h3c1.278-0.605-0.304-0.454,1-1v-3h3
		c1.97-4.512,1.938-2.571,5-5l2-4h9c0.844,1.135-0.127,0.146,1,1v3h3v1h1v4c-1.135,0.844-0.146-0.127-1,1h-3
		c-0.434,4.871-0.989,10.836-1,17c-1.135,0.844-0.146-0.127-1,1h-3v12h3c0.333-1.333,0.667-2.667,1-4h5c1.775-3.045,4.062-3.825,5-8
		h3v-1h1v-1v-1c1.667-1,3.333-2,5-3v-3c1.333-0.333,2.667-0.667,4-1v-3h1c3-1,6-2,9-3v-3h3v-1h1c0.333-2,0.667-4,1-6
		c1-0.333,2-0.667,3-1c3.622-2.846-0.31-4.58,7-5v-1c2.896-1.752,12.169,1.117,13,2h1v7c-5.289,2.374-5.238,7.201-5,15h-4
		c0.068,5.12-0.289,10.231-1,14h-4c-0.333,4-0.667,8-1,12h4v-3h1v-1h3c0.333-1.333,0.667-2.667,1-4c1.667-0.333,3.333-0.667,5-1v-3
		h1v-1h4c0.842,2.232,1.029,5.438,1,9c1.333,0.333,2.667,0.667,4,1v4c-1.135,0.844-0.146-0.127-1,1h-3c-0.333,1.333-0.667,2.667-1,4
		h-8c-1.454,3.992-0.511,4.819-6,5v3h-1c-1.166,1.361-1.825,1.528-4,2v3h-1v1h-3c-0.333,1-0.667,2-1,3c-1.022,1.181-3.174,1.597-5,2
		v3h-1v1h-3c-1.278,0.605,0.304,0.454-1,1v3h-3v1h-1c-0.333,2.333-0.667,4.667-1,7c-1.333,0.333-2.667,0.667-4,1v3
		c-2.078,1.094-1.771,1.611-5,2v7c-1,0.333-2,0.667-3,1c-1.139,1.139-0.003,0.398-2,1v3h-1v1h-3c-1.51,1.169-1.055,5.336-1,8
		c-1.333,0.333-2.667,0.667-4,1c-0.388,2.417-1.188,5.912-2,8h-3c-0.333,1.667-0.667,3.333-1,5h-4v3h-1v1
		c-1.333,0.996-2.953-0.168-4,1c-0.333,1-0.667,2-1,3h-7c-1,1.667-2,3.333-3,5h-7c-1.077-0.923,0.076-0.663-2-1v1
		c-1.245,0.67-0.563-0.619-1-1c-2.394-1.583-2.124-3.954-2-8h1v-2c2.375-3.062,3.713-0.999,4-7h4v-4h4c0.667-3,1.333-6,2-9h2
		c2.009-4.518,1.934-2.549,5-5c0.333-1,0.667-2,1-3c1.001-1.173,3.187-1.614,5-2v-8h3v-1c2.463-2.069,1.633-3.363,6-4v-3h1v-1
		c1.36-1.005,3.043,0.336,4-1c1-1.396-0.334-3.025,1-4c1.34-0.979,3.172,0.431,4-1v-7l1-1h3c-0.012-3.82,0-7.253,2-9
		c1-0.333,2-0.667,3-1c0.667-4.333,1.333-8.667,2-13h3v-12c-3.382,0.909-1.938,1.228-4,3v1c-2.667,0.333-5.333,0.667-8,1v1h-1v6
		l-1,1h-3c-0.333,1.667-0.667,3.333-1,5h-9v3h-1c-1.166,1.361-1.825,1.528-4,2v3h-1v1h-3c-1.278,0.605,0.304,0.454-1,1v3h-14
		c-0.636-3.538-1.008-8.151-1-13c-1.333-0.333-2.667-0.667-4-1v-4c1.135-0.844,0.146,0.127,1-1h3v-8h-7
		c-0.844,1.135,0.127,0.146-1,1v3c-2.391,0.463-3.145,1.158-5,2v3h-4v3c-2.078,1.094-1.771,1.611-5,2v3h-1v1h-3
		c-0.667,1.667-1.333,3.333-2,5h-3c-0.333,1.333-0.667,2.667-1,4h-4v3h-1c-1.166,1.361-1.825,1.528-4,2v3h-1
		c-1.934,1.783-8.393,1.1-12,1c-0.702-1.412-1.439-1.227-2-2v-2c-0.954-1.094-2.039-0.772-4-1v-31c5.852-2.638,4.264-9.931,4-18
		c-4.073,1.188-1.056,0.775-3,3c-1.044,1.194-3.162,1.569-5,2v3h-1v1h-3c-0.333,1.333-0.667,2.667-1,4h-3v1h-1v3
		c-1.333,0.333-2.667,0.667-4,1c-0.333,1.333-0.667,2.667-1,4h-4v3c-2.078,1.094-1.771,1.611-5,2v3h-1c-2.054,2.448-2.836,0.966-4,5
		c-1.333,0.333-2.667,0.667-4,1v3h-1v1h-7c-1,1.667-2,3.333-3,5h-7l-2,4h-13c-1.163-3.102-1.045-8.434-1-13
		c8.128-4.317,3.165-6.923,6-15h3v-26c-1.333-0.333-2.667-0.667-4-1v-3h-4v3h-1c-1.139,1.139-0.003,0.398-2,1v1h-5
		c-0.22,1.501-0.851,7.21-2,8h-3v1h-1v3c-1.333,0.333-2.667,0.667-4,1v3h-1v1h-3c-1.278,0.605,0.304,0.454-1,1v3
		c-1.84,0.417-3.957,0.813-5,2c-0.333,1-0.667,2-1,3h-3v3h-1c-1.166,1.361-1.825,1.528-4,2v3h-1v1h-3v3h-1
		c-1.166,1.361-1.825,1.528-4,2v3c-6.737,0.297-14.932,0.978-23,1c-0.463-2.391-1.158-3.145-2-5h-3c-0.712-4.261-1.21-11.753-2-16
		h-2v3c-7.201,0.392-2.912,2.248-6,4h-5v1c-1,0.333-2,0.667-3,1c0.147,6.978-0.153,6.064-5,8v3c-3.736,0.082-6.311,0.92-9,2v3
		c-4.566,0.667-2.469,0.883-5,3v1h-4c-3.302,1.114-8.249,0.987-13,1c-1.297-3.067-1.849-4.561-6-5c-0.127-2.16-1.015-3.37-1-4h1
		c0.333-3,0.667-6,1-9h2c0.844-4.544,2.969-5.278,4-9c-1-0.333-2-0.667-3-1c-0.333-4-0.667-8-1-12c2.078-1.094,1.771-1.611,5-2
		c0.271-1.988-0.104-2.998,1-4h2v-1h1v-2l2-2h2l2-4h3c0.463-2.391,1.158-3.145,2-5h3v-3h1c1.166-1.361,1.825-1.528,4-2v-3h1v-1h7
		l1-1v-3c1.333-0.333,2.667-0.667,4-1v-3h1v-1h3v-1h1v-3c2.391-0.463,3.145-1.158,5-2v-3c3.826,0.039,6.271-0.478,9-1v-3h1
		c2.167-1.987,10.054-1.101,14-1v1h3v1h1v4c-1,0.333-2,0.667-3,1c-0.465,2.589-0.959,4.423-1,8h-8c-1.025,2.531-2.316,4.303-3,7h-2
		c-0.333,2-0.667,4-1,6c-1.135,0.844-0.146-0.127-1,1h-3v3h-1v1h-3c-1.332,0.963,0.005,2.636-1,4c-1.667,0.667-3.333,1.333-5,2v3h-3
		v1h-1v3c-0.605,1.278-0.454-0.304-1,1h-3v3h-1c-1.166,1.361-1.825,1.528-4,2v4h-4v3h7c0.333-1.333,0.667-2.667,1-4
		c1.333-0.333,2.667-0.667,4-1v-3h1v-1h3v-1h1v-3c1.333-0.333,2.667-0.667,4-1v-3h1v-1h3v-1h1v-3h8c1.454-3.992,0.511-4.819,6-5
		c0.667,1.667,1.333,3.333,2,5h3c1.223,6.828,1.012,16.639,1,25c2.316,0.875,4.407,1.018,8,1v-3h1v-1h3c0.333-1.333,0.667-2.667,1-4
		h3v-1c2.906-2.941-0.377-3.683,6-4v-4h3v-1c1.361-1.166,1.528-1.825,2-4h3v-1h1v-3h4v-3c2.078-1.094,1.771-1.611,5-2v-17
		c1.604-0.605,2.375-0.881,5-1v-3h1c1.478-1.433,5.054-1.917,8-2v-4h10v3h1c1.166,1.361,1.825,1.528,4,2v3h1v1h7v1
		c1.05,1.155,1.7,6.228,2,8h3v1c1.504,1.686,0.995,5.819,1,9v23h-4v12h3v-3h1c1.759-1.943,1.39,0.085,3-1v-1
		c2.874-2.605,1.15-2.905,7-3v-1h3v-2c1-0.333,2-0.667,3-1c0.333-0.667,0.667-1.333,1-2h1v-4h-1c-0.037-0.288,0.914-2.291,1-4h4v-4
		c1.667-0.333,3.333-0.667,5-1v-3h1v-1h3c0.924-4.734,2.1-4.44,6-6v-3h3v-1h1v-7l1-1c1-0.333,2-0.667,3-1
		c0.615-2.742,1.477-4.236,3-6c0.667-0.333,1.333-0.667,2-1v-5c0.852-1.405,2.706,0.001,4-1c1.664-1.288,0.978-6.148,1-9h4
		c0.333-1,0.667-2,1-3c-4.101-0.633-3.126-0.22-8,0c-0.333,1-0.667,2-1,3h-17c-0.607-2.393-0.317-1.858-2-3v-1
		c-2.814-1.558-6.882,0.857-9-1c-2.295-2.521-1.101-12.542-1-17c7.241-2.672,23.642-1.05,33-1c2.167-1.987,10.054-1.101,14-1
		c0.844-1.135-0.127-0.146,1-1c-0.063-3.577,0.128-5.714,1-8h3c0.492-2.732,0.982-5.18,1-9h4v-3
		C432.816,407.744,433.868,407.442,439.5,407.5"/>
	<rect x="397.5" y="497.5" clip-path="url(#SVGID_2_)" width="3" height="2"/>
	<rect x="217.5" y="519.5" clip-path="url(#SVGID_2_)" width="2" height="2"/>
	<path clip-path="url(#SVGID_2_)" d="M519.5,529.5c0.333,1,0.667,2,1,3c1.135-0.844,0.146,0.127,1-1c1.139-1.139,0.398-0.003,1-2
		H519.5z"/>
</g>
</svg>
