<?xml version="1.0" encoding="UTF-8" standalone="no"?>
<svg width="256px" height="168px" viewBox="0 0 256 168" version="1.1" xmlns="http://www.w3.org/2000/svg" xmlns:xlink="http://www.w3.org/1999/xlink" xmlns:sketch="http://www.bohemiancoding.com/sketch/ns">
    <title>Slice 1</title>
    <description>Created with Sketch (http://www.bohemiancoding.com/sketch)</description>
    <defs></defs>
    <g id="Page-1" stroke="none" stroke-width="1" fill="none" fill-rule="evenodd" sketch:type="MSPage">
        <path d="M42,63 L42,84 L63,84 L63,63 L42,63 Z M21,42 L21,63 L42,63 L42,42 L21,42 Z M42,84 L42,105 L63,105 L63,84 L42,84 Z M42,105 L42,126 L63,126 L63,105 L42,105 Z M42,126 L42,147 L63,147 L63,126 L42,126 Z M21,105 L21,126 L42,126 L42,105 L21,105 Z M21,63 L21,84 L42,84 L42,63 L21,63 Z M21,84 L21,105 L42,105 L42,84 L21,84 Z M63,63 L63,84 L84,84 L84,63 L63,63 Z M63,42 L63,63 L84,63 L84,42 L63,42 Z M63,21 L63,42 L84,42 L84,21 L63,21 Z M63,126 L63,147 L84,147 L84,126 L63,126 Z M63,0 L63,21 L84,21 L84,0 L63,0 Z M0,42 L0,63 L21,63 L21,42 L0,42 Z M0,105 L0,126 L21,126 L21,105 L0,105 Z M63,147 L63,168 L84,168 L84,147 L63,147 Z M63,84 L63,105 L84,105 L84,84 L63,84 Z M0,84 L0,105 L21,105 L21,84 L0,84 Z M63,105 L63,126 L84,126 L84,105 L63,105 Z M0,63 L0,84 L21,84 L21,63 L0,63 Z M42,42 L42,63 L63,63 L63,42 L42,42 Z M42,21 L42,42 L63,42 L63,21 L42,21 Z" id="Rectangle-2" fill="#5AB744" sketch:type="MSShapeGroup"></path>
        <g id="Line-+-Line" sketch:type="MSLayerGroup" transform="translate(189.000000, 84.000000) rotate(45.000000) translate(-189.000000, -84.000000) translate(109.000000, 4.000000)" stroke="#5AB744" stroke-width="14.8148148" stroke-linecap="square">
            <path d="M80,0.37037037 L80,159.62963" id="Line" sketch:type="MSShapeGroup"></path>
            <path d="M80,0.37037037 L80,159.62963" id="Line" sketch:type="MSShapeGroup" transform="translate(80.000000, 80.000000) rotate(-90.000000) translate(-80.000000, -80.000000) "></path>
        </g>
    </g>
</svg>