<?xml version="1.0" encoding="UTF-8" standalone="no"?>
<svg width="235px" height="176px" viewBox="0 0 235 176" version="1.1" xmlns="http://www.w3.org/2000/svg" xmlns:xlink="http://www.w3.org/1999/xlink" xmlns:sketch="http://www.bohemiancoding.com/sketch/ns">
    <title>Slice 1</title>
    <description>Created with Sketch (http://www.bohemiancoding.com/sketch)</description>
    <defs></defs>
    <g id="Page-1" stroke="none" stroke-width="1" fill="none" fill-rule="evenodd" sketch:type="MSPage">
        <path d="M42,71 L42,92 L63,92 L63,71 L42,71 Z M21,50 L21,71 L42,71 L42,50 L21,50 Z M42,92 L42,113 L63,113 L63,92 L42,92 Z M42,113 L42,134 L63,134 L63,113 L42,113 Z M42,134 L42,155 L63,155 L63,134 L42,134 Z M21,113 L21,134 L42,134 L42,113 L21,113 Z M21,71 L21,92 L42,92 L42,71 L21,71 Z M21,92 L21,113 L42,113 L42,92 L21,92 Z M63,71 L63,92 L84,92 L84,71 L63,71 Z M63,50 L63,71 L84,71 L84,50 L63,50 Z M63,29 L63,50 L84,50 L84,29 L63,29 Z M63,134 L63,155 L84,155 L84,134 L63,134 Z M63,8 L63,29 L84,29 L84,8 L63,8 Z M0,50 L0,71 L21,71 L21,50 L0,50 Z M0,113 L0,134 L21,134 L21,113 L0,113 Z M63,155 L63,176 L84,176 L84,155 L63,155 Z M63,92 L63,113 L84,113 L84,92 L63,92 Z M0,92 L0,113 L21,113 L21,92 L0,92 Z M63,113 L63,134 L84,134 L84,113 L63,113 Z M0,71 L0,92 L21,92 L21,71 L0,71 Z M42,50 L42,71 L63,71 L63,50 L42,50 Z M42,29 L42,50 L63,50 L63,29 L42,29 Z" id="Rectangle-2" fill="#5AB744" sketch:type="MSShapeGroup"></path>
        <path d="M217,92 L217,110 L235,110 L235,92 L217,92 Z M217,74 L217,92 L235,92 L235,74 L217,74 Z M217,37 L217,55 L235,55 L235,37 L217,37 Z M217,147 L217,165 L235,165 L235,147 L217,147 Z M217,18 L217,36 L235,36 L235,18 L217,18 Z M217,166 L217,184 L235,184 L235,166 L217,166 Z M217,110 L217,128 L235,128 L235,110 L217,110 Z M217,129 L217,147 L235,147 L235,129 L217,129 Z M143,74 L143,92 L161,92 L161,74 L143,74 Z M143,55 L143,73 L161,73 L161,55 L143,55 Z M143,37 L143,55 L161,55 L161,37 L143,37 Z M143,129 L143,147 L161,147 L161,129 L143,129 Z M217,55 L217,73 L235,73 L235,55 L217,55 Z M217,0 L217,18 L235,18 L235,0 L217,0 Z M143,92 L143,110 L161,110 L161,92 L143,92 Z M143,110 L143,128 L161,128 L161,110 L143,110 Z M180,74 L180,92 L198,92 L198,74 L180,74 Z M180,55 L180,73 L198,73 L198,55 L180,55 Z M180,37 L180,55 L198,55 L198,37 L180,37 Z M180,129 L180,147 L198,147 L198,129 L180,129 Z M180,18 L180,36 L198,36 L198,18 L180,18 Z M180,147 L180,165 L198,165 L198,147 L180,147 Z M180,92 L180,110 L198,110 L198,92 L180,92 Z M180,110 L180,128 L198,128 L198,110 L180,110 Z" id="Rectangle-2" fill="#5AB744" sketch:type="MSShapeGroup"></path>
    </g>
</svg>